HIERARCHY
ROOT Hips
{
    OFFSET 0.000000 0.000000 0.000000
    CHANNELS 6 Xposition Yposition Zposition Zrotation Xrotation Yrotation
    JOINT Spine
    {
        OFFSET -0.000000 7.305679 0.000000
        CHANNELS 3 Zrotation Xrotation Yrotation
        JOINT Spine1
        {
            OFFSET -0.000000 20.356625 0.000000
            CHANNELS 3 Zrotation Xrotation Yrotation
            JOINT Neck
            {
                OFFSET -0.000000 22.138498 0.000000
                CHANNELS 3 Zrotation Xrotation Yrotation
                JOINT Head
                {
                    OFFSET -0.000000 13.809516 1.781873
                    CHANNELS 3 Zrotation Xrotation Yrotation
                    End Site
                    {
                        OFFSET -0.000000 17.818729 0.000000
                    }
                }
            }
            JOINT LeftShoulder
            {
                OFFSET 3.599131 17.989975 0.023592
                CHANNELS 3 Zrotation Xrotation Yrotation
                JOINT LeftArm
                {
                    OFFSET 12.560995 0.000000 0.000000
                    CHANNELS 3 Zrotation Xrotation Yrotation
                    JOINT LeftForeArm
                    {
                        OFFSET 22.903347 0.000000 0.000000
                        CHANNELS 3 Zrotation Xrotation Yrotation
                        JOINT LeftHand
                        {
                            OFFSET 21.865294 0.000000 0.000000
                            CHANNELS 3 Zrotation Xrotation Yrotation
                            JOINT LeftHandThumb1
                            {
                                OFFSET 1.853706 -2.106484 2.949078
                                CHANNELS 3 Zrotation Xrotation Yrotation
                                JOINT LeftHandThumb2
                                {
                                    OFFSET 2.049154 0.000000 1.336405
                                    CHANNELS 3 Zrotation Xrotation Yrotation
                                    JOINT LeftHandThumb3
                                    {
                                        OFFSET 2.672809 0.000000 0.000000
                                        CHANNELS 3 Zrotation Xrotation Yrotation
                                        End Site
                                        {
                                            OFFSET 2.381303 0.000000 0.000000
                                        }
                                    }
                                }
                            }
                            JOINT LeftHandIndex1
                            {
                                OFFSET 7.583345 0.000000 2.949078
                                CHANNELS 3 Zrotation Xrotation Yrotation
                                JOINT LeftHandIndex2
                                {
                                    OFFSET 4.454682 0.000000 0.000000
                                    CHANNELS 3 Zrotation Xrotation Yrotation
                                    JOINT LeftHandIndex3
                                    {
                                        OFFSET 2.227341 0.000000 0.000000
                                        CHANNELS 3 Zrotation Xrotation Yrotation
                                        End Site
                                        {
                                            OFFSET 1.984419 0.000000 0.000000
                                        }
                                    }
                                }
                            }
                            JOINT LeftHandMiddle1
                            {
                                OFFSET 7.583345 0.000000 0.977409
                                CHANNELS 3 Zrotation Xrotation Yrotation
                                JOINT LeftHandMiddle2
                                {
                                    OFFSET 4.900151 0.000000 0.000000
                                    CHANNELS 3 Zrotation Xrotation Yrotation
                                    JOINT LeftHandMiddle3
                                    {
                                        OFFSET 2.672809 0.000000 0.000000
                                        CHANNELS 3 Zrotation Xrotation Yrotation
                                        End Site
                                        {
                                            OFFSET 2.381303 0.000000 0.000000
                                        }
                                    }
                                }
                            }
                            JOINT LeftHandRing1
                            {
                                OFFSET 7.162047 0.000000 -0.977409
                                CHANNELS 3 Zrotation Xrotation Yrotation
                                JOINT LeftHandRing2
                                {
                                    OFFSET 4.454682 0.000000 0.000000
                                    CHANNELS 3 Zrotation Xrotation Yrotation
                                    JOINT LeftHandRing3
                                    {
                                        OFFSET 2.227341 0.000000 0.000000
                                        CHANNELS 3 Zrotation Xrotation Yrotation
                                        End Site
                                        {
                                            OFFSET 1.984419 0.000000 0.000000
                                        }
                                    }
                                }
                            }
                            JOINT LeftHandPinky1
                            {
                                OFFSET 6.740750 0.000000 -2.949078
                                CHANNELS 3 Zrotation Xrotation Yrotation
                                JOINT LeftHandPinky2
                                {
                                    OFFSET 3.563746 0.000000 0.000000
                                    CHANNELS 3 Zrotation Xrotation Yrotation
                                    JOINT LeftHandPinky3
                                    {
                                        OFFSET 1.781873 0.000000 0.000000
                                        CHANNELS 3 Zrotation Xrotation Yrotation
                                        End Site
                                        {
                                            OFFSET 1.587536 0.000000 0.000000
                                        }
                                    }
                                }
                            }
                        }
                    }
                }
            }
            JOINT RightShoulder
            {
                OFFSET -3.506995 17.989975 0.023592
                CHANNELS 3 Zrotation Xrotation Yrotation
                JOINT RightArm
                {
                    OFFSET -12.560995 0.000000 0.000000
                    CHANNELS 3 Zrotation Xrotation Yrotation
                    JOINT RightForeArm
                    {
                        OFFSET -22.903347 0.000000 0.000000
                        CHANNELS 3 Zrotation Xrotation Yrotation
                        JOINT RightHand
                        {
                            OFFSET -21.865294 0.000000 0.000000
                            CHANNELS 3 Zrotation Xrotation Yrotation
                            JOINT RightHandThumb1
                            {
                                OFFSET -1.853706 -2.106484 2.949078
                                CHANNELS 3 Zrotation Xrotation Yrotation
                                JOINT RightHandThumb2
                                {
                                    OFFSET -2.049154 0.000000 1.336405
                                    CHANNELS 3 Zrotation Xrotation Yrotation
                                    JOINT RightHandThumb3
                                    {
                                        OFFSET -2.672809 0.000000 0.000000
                                        CHANNELS 3 Zrotation Xrotation Yrotation
                                        End Site
                                        {
                                            OFFSET -2.381303 0.000000 0.000000
                                        }
                                    }
                                }
                            }
                            JOINT RightHandIndex1
                            {
                                OFFSET -7.583345 0.000000 2.949078
                                CHANNELS 3 Zrotation Xrotation Yrotation
                                JOINT RightHandIndex2
                                {
                                    OFFSET -4.454682 0.000000 0.000000
                                    CHANNELS 3 Zrotation Xrotation Yrotation
                                    JOINT RightHandIndex3
                                    {
                                        OFFSET -2.227341 0.000000 0.000000
                                        CHANNELS 3 Zrotation Xrotation Yrotation
                                        End Site
                                        {
                                            OFFSET -1.984419 0.000000 0.000000
                                        }
                                    }
                                }
                            }
                            JOINT RightHandMiddle1
                            {
                                OFFSET -7.583345 0.000000 0.977409
                                CHANNELS 3 Zrotation Xrotation Yrotation
                                JOINT RightHandMiddle2
                                {
                                    OFFSET -4.900151 0.000000 0.000000
                                    CHANNELS 3 Zrotation Xrotation Yrotation
                                    JOINT RightHandMiddle3
                                    {
                                        OFFSET -2.672809 0.000000 0.000000
                                        CHANNELS 3 Zrotation Xrotation Yrotation
                                        End Site
                                        {
                                            OFFSET -2.381303 0.000000 0.000000
                                        }
                                    }
                                }
                            }
                            JOINT RightHandRing1
                            {
                                OFFSET -7.162047 0.000000 -0.977409
                                CHANNELS 3 Zrotation Xrotation Yrotation
                                JOINT RightHandRing2
                                {
                                    OFFSET -4.454682 0.000000 0.000000
                                    CHANNELS 3 Zrotation Xrotation Yrotation
                                    JOINT RightHandRing3
                                    {
                                        OFFSET -2.227341 0.000000 0.000000
                                        CHANNELS 3 Zrotation Xrotation Yrotation
                                        End Site
                                        {
                                            OFFSET -1.984419 0.000000 0.000000
                                        }
                                    }
                                }
                            }
                            JOINT RightHandPinky1
                            {
                                OFFSET -6.740750 0.000000 -2.949078
                                CHANNELS 3 Zrotation Xrotation Yrotation
                                JOINT RightHandPinky2
                                {
                                    OFFSET -3.563746 0.000000 0.000000
                                    CHANNELS 3 Zrotation Xrotation Yrotation
                                    JOINT RightHandPinky3
                                    {
                                        OFFSET -1.781873 0.000000 0.000000
                                        CHANNELS 3 Zrotation Xrotation Yrotation
                                        End Site
                                        {
                                            OFFSET -1.587536 0.000000 0.000000
                                        }
                                    }
                                }
                            }
                        }
                    }
                }
            }
        }
    }
    JOINT LeftUpLeg
    {
        OFFSET 8.909365 0.000000 0.000000
        CHANNELS 3 Zrotation Xrotation Yrotation
        JOINT LeftLeg
        {
            OFFSET -0.000000 -38.765560 0.000000
            CHANNELS 3 Zrotation Xrotation Yrotation
            JOINT LeftFoot
            {
                OFFSET -0.000000 -35.244961 0.000000
                CHANNELS 3 Zrotation Xrotation Yrotation
                JOINT LeftToeBase
                {
                    OFFSET -0.000000 -5.791087 13.364048
                    CHANNELS 3 Zrotation Xrotation Yrotation
                    End Site
                    {
                        OFFSET -0.000000 0.000000 3.563746
                    }
                }
            }
        }
    }
    JOINT RightUpLeg
    {
        OFFSET -8.909365 0.000000 0.000000
        CHANNELS 3 Zrotation Xrotation Yrotation
        JOINT RightLeg
        {
            OFFSET -0.000000 -38.765560 0.000000
            CHANNELS 3 Zrotation Xrotation Yrotation
            JOINT RightFoot
            {
                OFFSET -0.000000 -35.244961 0.000000
                CHANNELS 3 Zrotation Xrotation Yrotation
                JOINT RightToeBase
                {
                    OFFSET -0.000000 -5.791087 13.364048
                    CHANNELS 3 Zrotation Xrotation Yrotation
                    End Site
                    {
                        OFFSET -0.000000 0.000000 3.563746
                    }
                }
            }
        }
    }
}
MOTION
Frames:    4
Frame Time:    0.008333
1.858304    77.374954    110.159447    -2.567383    4.967980    -10.998970    -6.909595    8.631585    -16.489225    14.684450    10.663095    -7.044174    6.482853    -17.176277    12.670263    -2.814134    -12.356575    12.994412    9.320495    -0.772114    -22.920311    -91.608170    57.855553    21.899353    43.736000    24.560802    -64.168716    30.898415    -29.602634    -21.991434    -10.313894    12.086726    3.522421    -0.000000    0.000000    5.444523    -0.000000    0.000000    10.889045    45.000004    0.000000    -0.000000    0.000000    0.000000    0.000000    0.000000    0.000000    0.000000    24.463451    0.445590    7.744182    -11.805586    0.000000    0.000000    -5.902793    0.000000    0.000000    4.048015    -1.849827    15.154738    -23.611164    0.000000    0.000000    -11.805585    0.000000    0.000000    -16.606226    -6.743031    21.490055    -35.774498    0.000000    0.000000    -17.887247    0.000000    0.000000    -9.517196    -1.958565    1.020317    66.977020    64.336105    -12.096610    -84.722725    29.318460    65.240044    -37.459698    -56.079292    38.581326    5.104661    1.037858    1.742575    0.000000    0.000000    0.000000    0.000000    0.000000    0.000000    -19.254549    0.000000    0.000000    0.000000    0.000000    0.000000    0.000000    0.000000    0.000000    -6.466420    -0.846571    -7.091138    13.243197    0.000000    -0.000000    6.621599    0.000000    -0.000000    6.134126    -3.232392    -13.826801    26.486395    0.000000    -0.000000    13.243196    0.000000    -0.000000    18.798145    -7.148474    -20.081493    40.130894    0.000000    -0.000000    20.065449    0.000000    -0.000000    6.218508    -15.598012    16.873659    -6.798875    41.233692    18.041483    -4.914847    -29.141254    -2.628024    0.037616    0.129799    -0.077495    13.197079    -44.688412    15.757137    13.939637    47.422710    -33.624695    -5.651042    9.374827    -2.197414    -0.182912    -2.511012    0.031717    
1.910227    77.318924    110.559128    -2.499907    4.474303    -11.067142    -6.812365    8.584929    -16.418419    14.460988    10.827030    -7.017214    6.274708    -16.670692    12.469810    -3.107000    -12.428211    12.825643    9.360244    -0.585867    -22.810900    -91.706902    57.693211    22.193516    43.959511    24.020159    -64.121658    30.549837    -29.431747    -22.113171    -10.209835    12.035680    3.583709    -0.000000    0.000000    5.510375    -0.000000    0.000000    11.020749    45.000004    0.000000    -0.000000    0.000000    0.000000    0.000000    0.000000    0.000000    0.000000    24.388554    0.422865    7.702812    -11.954905    0.000000    0.000000    -5.977454    0.000000    0.000000    3.899886    -1.888828    15.063745    -23.909809    0.000000    0.000000    -11.954904    0.000000    0.000000    -16.833181    -6.788016    21.338955    -36.226978    0.000000    0.000000    -18.113489    0.000000    0.000000    -9.458721    -1.729619    0.921444    67.160194    63.941490    -11.958893    -84.918793    29.319761    65.098907    -37.411793    -55.912319    38.718483    5.170763    1.037166    1.791088    0.000000    0.000000    0.000000    0.000000    0.000000    0.000000    -19.335909    0.000000    0.000000    0.000000    0.000000    0.000000    0.000000    0.000000    0.000000    -6.505609    -0.844708    -7.072642    13.272751    0.000000    -0.000000    6.636374    0.000000    -0.000000    6.137820    -3.229622    -13.788889    26.545496    0.000000    -0.000000    13.272749    0.000000    -0.000000    18.847389    -7.145197    -20.021139    40.220448    0.000000    -0.000000    20.110224    0.000000    -0.000000    6.083802    -14.819850    16.834532    -7.106281    41.285759    18.494741    -5.151804    -29.257000    -3.020620    0.044274    0.148921    -0.091644    11.465814    -44.156487    12.649556    14.324305    46.179462    -34.817604    -5.931526    10.318696    -2.051784    -0.194053    -2.468245    0.054110    
1.950394    77.229233    110.978401    -2.426211    3.940648    -11.132710    -6.737694    8.533783    -16.311043    14.252253    10.957253    -6.975152    6.023811    -16.067667    12.236353    -3.410876    -12.457176    12.627995    9.405561    -0.365183    -22.666801    -91.804604    57.534241    22.487164    44.214432    23.440142    -64.102219    30.197409    -29.251268    -22.173311    -10.105130    11.977210    3.632928    -0.000000    0.000000    5.562657    -0.000000    0.000000    11.125317    45.000004    0.000000    -0.000000    0.000000    0.000000    0.000000    0.000000    0.000000    0.000000    24.318741    0.401454    7.653448    -12.092762    0.000000    0.000000    -6.046381    0.000000    0.000000    3.761398    -1.921721    14.957906    -24.185518    0.000000    0.000000    -12.092759    0.000000    0.000000    -17.046682    -6.819177    21.168407    -36.644726    0.000000    0.000000    -18.322363    0.000000    0.000000    -9.396688    -1.461516    0.810183    67.465027    63.660652    -11.975252    -84.981155    29.279318    64.784294    -37.266525    -55.764584    38.915276    5.220487    1.043483    1.815702    0.000000    0.000000    0.000000    0.000000    0.000000    0.000000    -19.400732    0.000000    0.000000    0.000000    0.000000    0.000000    0.000000    0.000000    0.000000    -6.525629    -0.845172    -7.050765    13.318532    0.000000    -0.000000    6.659268    0.000000    -0.000000    6.163197    -3.230969    -13.743685    26.637072    0.000000    -0.000000    13.318537    0.000000    -0.000000    18.921051    -7.147197    -19.948999    40.359196    0.000000    -0.000000    20.179596    0.000000    -0.000000    6.010643    -14.048068    16.835577    -7.518314    41.499264    19.022213    -5.403499    -29.376345    -3.478268    0.051119    0.108259    -0.113541    9.730611    -43.620148    9.596093    14.819174    45.314289    -35.939663    -6.208603    11.056385    -1.863206    -0.214054    -2.438299    0.089357    
1.977204    77.104912    111.414429    -2.349691    3.384216    -11.202119    -6.684379    8.469311    -16.169024    14.066538    11.044471    -6.918305    5.726810    -15.360646    11.975135    -3.717309    -12.445559    12.405941    9.451669    -0.107106    -22.480915    -91.869926    57.345566    22.749842    44.513668    22.848539    -64.134041    29.829741    -29.047718    -22.176182    -10.009935    11.910181    3.653691    -0.000000    0.000000    5.583980    -0.000000    0.000000    11.167960    45.000004    0.000000    -0.000000    0.000000    0.000000    0.000000    0.000000    0.000000    0.000000    24.255890    0.381790    7.593530    -12.215051    0.000000    0.000000    -6.107525    0.000000    0.000000    3.636110    -1.946518    14.832491    -24.430096    0.000000    0.000000    -12.215048    0.000000    0.000000    -17.241657    -6.832064    20.972311    -37.015297    0.000000    0.000000    -18.507647    0.000000    0.000000    -9.332632    -1.162300    0.686173    67.843712    63.466702    -12.113731    -84.927063    29.197208    64.353798    -37.037773    -55.635303    39.143486    5.250487    1.053181    1.820282    0.000000    0.000000    0.000000    0.000000    0.000000    0.000000    -19.436131    0.000000    0.000000    0.000000    0.000000    0.000000    0.000000    0.000000    0.000000    -6.515540    -0.849329    -7.027548    13.385484    0.000000    -0.000000    6.692742    0.000000    -0.000000    6.219033    -3.239335    -13.695016    26.770967    0.000000    -0.000000    13.385482    0.000000    -0.000000    19.025452    -7.159059    -19.870541    40.562069    0.000000    -0.000000    20.281034    0.000000    -0.000000    6.029086    -13.304044    16.920101    -8.051310    41.897011    19.629747    -5.674764    -29.476576    -4.033926    0.057417    -0.009282    -0.143566    8.063192    -43.036945    6.703515    15.466661    44.846405    -36.959545    -6.477163    11.444118    -1.628939    -0.240075    -2.452302    0.129648    
